<svg width="240" height="240" viewBox="0 0 240 240" fill="none" xmlns="http://www.w3.org/2000/svg">
<path fill-rule="evenodd" clip-rule="evenodd" d="M234.612 83.5627C240.602 61.5927 241.082 40.1727 227.232 21.3427V21.3627C212.502 1.34267 192.742 -1.74734 168.972 0.732662C155.052 2.18266 144.082 6.05266 133.802 15.7027C132.952 16.5015 131.131 18.737 129.094 21.2377C125.572 25.5616 121.405 30.6784 120.492 30.5327C117.359 28.1565 114.912 25.3637 112.456 22.5607C109.558 19.2531 106.647 15.9312 102.582 13.2627C89.7623 4.85266 59.0023 0.572657 44.4723 4.85266C31.3223 8.73266 17.5323 20.5427 10.5123 32.2127C-26.1077 93.0727 41.6123 167.353 81.0823 209.023C90.8923 219.383 101.212 229.463 111.502 239.203C113.25 239.509 126.94 225.556 133.874 218.49L133.876 218.488L133.881 218.483C135.553 216.779 136.83 215.477 137.452 214.873C138.05 214.291 138.651 213.708 139.253 213.123L139.447 212.935L139.631 212.756C176.317 177.113 220.905 133.794 234.612 83.5627ZM207.73 29.2987C214.648 28.1567 222.159 26.917 228.372 29.1727L228.412 31.3527C206.537 34.7778 184.649 38.1389 162.76 41.5001C123.491 47.5303 84.2186 53.561 45.0123 59.9627C40.7412 60.6611 36.4719 61.5334 32.1983 62.4065C26.376 63.596 20.5458 64.7872 14.6923 65.5427C13.9766 65.6355 13.2243 65.7766 12.4547 65.921C9.2451 66.5229 5.73394 67.1815 3.32226 64.6327C3.21079 63.4065 3.95953 63.1876 4.79937 62.9421C4.93899 62.9013 5.08113 62.8597 5.22225 62.8127C9.18939 61.4635 16.0815 60.3697 21.9272 59.4419C24.0975 59.0975 26.1236 58.7759 27.8023 58.4727C85.3123 48.1127 145.642 38.2727 203.462 29.9727C204.847 29.7746 206.275 29.5388 207.73 29.2987ZM227.242 35.1527C228.309 35.2025 232.183 36.7997 232.692 37.5527L232.692 37.5577L232.692 37.5627C233.573 38.9196 235.213 45.8161 235.562 47.7727C240.042 72.6227 226.822 106.283 211.962 125.963C211.601 126.443 211.354 127.027 211.102 127.619C210.636 128.719 210.157 129.847 208.922 130.393L206.632 131.093C182.443 134.148 158.312 138.053 134.179 141.958C107.132 146.334 80.0842 150.711 52.9523 153.893C52.2906 153.969 51.5435 154.074 50.7497 154.186C47.8122 154.599 44.236 155.102 41.9923 154.583C37.6823 153.583 30.6723 140.953 28.7523 136.803C27.5905 135.303 26.3169 133.27 23.8923 129.313C12.2123 112.963 5.93226 92.8227 3.45226 72.9327C3.73809 71.675 6.79247 70.8894 8.21342 70.524L8.41225 70.4727C17.8846 67.9661 28.9222 66.5349 39.631 65.1463C45.5411 64.38 51.351 63.6266 56.7423 62.7127C70.3103 60.4104 83.8891 58.0467 97.4755 55.6817C134.758 49.192 172.098 42.6923 209.432 37.4227C210.618 37.2559 212.127 37.0097 213.781 36.74C218.474 35.9746 224.329 35.0196 227.242 35.1527ZM195.982 136.173C198.512 135.993 200.562 135.963 202.982 136.833C203.462 140.355 199.281 141.165 196.392 141.725C196.149 141.772 195.914 141.818 195.692 141.863C171.583 146.777 145.236 149.872 119.493 152.896C107.887 154.259 96.4027 155.608 85.3023 157.103C81.3447 157.637 77.0405 158.434 72.6632 159.245C65.4046 160.59 57.945 161.972 51.5323 162.253C48.5323 162.393 46.3923 162.133 44.4623 159.623C44.2293 158.349 44.7489 158.41 45.4693 158.496C45.7385 158.527 46.0357 158.563 46.3323 158.533C63.8396 156.69 82.3812 153.808 100.404 151.007L100.407 151.006L100.409 151.006C107.133 149.961 113.784 148.927 120.282 147.963C128.801 146.698 137.861 145.055 147.062 143.386C163.697 140.368 180.793 137.267 195.982 136.173Z" fill="#29166F"/>
<path fill-rule="evenodd" clip-rule="evenodd" d="M24.3623 126.623C28.1334 133.877 30.5602 137.2 35.2923 141.103C38.6323 142.733 47.2423 143.653 50.6623 142.633C54.6023 141.463 59.4323 132.463 60.5823 128.623C60.8448 127.751 60.8827 126.802 60.9197 125.875C61.001 123.837 61.0782 121.903 63.5323 121.113C65.0523 121.233 64.8523 128.343 64.6823 129.723C64.5395 130.865 63.799 131.958 63.0379 133.082C61.6131 135.187 60.1161 137.397 62.3323 140.233C64.7822 143.363 85.2722 140.603 82.4522 131.343C82.272 130.753 81.7963 130.267 81.2535 129.712C80.4714 128.913 79.55 127.972 79.1722 126.373C78.7722 124.673 77.9423 114.693 78.4723 113.603C80.0523 110.653 88.2023 110.413 89.1923 113.353C89.5823 114.513 89.5923 125.153 89.3023 126.673C89.1612 127.421 88.5728 128.212 87.9465 129.054C86.5298 130.959 84.9191 133.126 87.8523 135.643C91.0723 138.403 103.992 134.743 106.532 131.733C109.503 128.218 107.787 126.493 105.978 124.674C104.992 123.683 103.979 122.664 103.682 121.313C102.562 116.213 101.292 84.9027 102.952 81.2527C103.264 80.5669 103.75 79.9297 104.241 79.2859C105.547 77.5733 106.889 75.8144 105.072 72.9727C102.822 69.4427 82.5623 73.4727 84.4623 81.5527C84.6526 82.3822 85.4716 83.2928 86.3185 84.2344C87.207 85.2222 88.1263 86.2442 88.3823 87.2427C89.3423 90.9827 89.7022 99.6826 85.0422 100.733C75.7922 102.813 76.4522 95.8927 77.5422 88.7527C77.7862 87.1748 78.5937 85.7625 79.3465 84.446C80.5687 82.3084 81.6465 80.4235 79.9323 78.4927C76.9494 75.1303 70.2912 77.4423 65.2351 79.198C63.6296 79.7555 62.1857 80.2568 61.0723 80.5027C58.5246 81.0649 55.7489 81.3194 52.9388 81.5771C46.9026 82.1305 40.7075 82.6985 36.2723 86.3627C28.3223 92.9327 22.9623 105.883 22.7123 116.223C22.6661 118.324 23.1099 120.259 23.5587 122.216C23.8873 123.648 24.2185 125.093 24.3623 126.623ZM63.8823 118.863C65.5323 117.333 64.2323 93.1027 62.0723 91.1427C59.5123 88.8227 41.0323 89.1627 37.7723 90.8727C35.3223 92.1627 28.3723 101.423 33.7323 101.453C35.1108 101.459 35.9964 100.655 36.8922 99.8415C37.4455 99.3392 38.0027 98.8334 38.6823 98.5126C46.8423 94.6926 51.9423 95.3927 57.0323 102.903C59.0728 105.91 59.7587 108.96 60.4277 111.935C60.8866 113.975 61.3376 115.98 62.2123 117.913C62.2541 118.004 62.2948 118.1 62.3357 118.197C62.6473 118.931 62.9707 119.692 63.8723 118.853L63.8823 118.863ZM56.9723 125.783C54.0827 145.52 33.3985 141.234 29.504 125.61C31.2016 126.628 32.7245 128.374 34.2624 130.137C37.2667 133.581 40.3285 137.091 44.8623 135.373C46.4449 133.067 44.1159 131.807 41.9664 130.643C41.1415 130.196 40.343 129.764 39.8023 129.293C32.6623 123.053 29.8623 109.393 38.1023 103.173C52.1623 92.5727 58.5723 114.823 56.9723 125.783Z" fill="#F97B21"/>
<path d="M35.2912 141.123C38.6312 142.753 47.2312 143.663 50.6612 142.653C54.6012 141.483 59.4312 132.483 60.5812 128.643C61.4112 125.853 59.9612 122.283 63.5312 121.133C65.0512 121.253 64.8512 128.363 64.6812 129.743C64.2712 133.033 58.9312 135.903 62.3312 140.253C64.7812 143.383 85.2812 140.623 82.4512 131.363C82.0112 129.933 79.8112 129.113 79.1712 126.393C78.7712 124.703 77.9412 114.723 78.4712 113.623C80.0512 110.673 88.2112 110.433 89.1912 113.373C89.5812 114.533 89.5912 125.173 89.3012 126.693C88.8412 129.123 83.6212 132.033 87.8512 135.663C91.0712 138.423 103.981 134.753 106.531 131.753C111.131 126.313 104.531 125.153 103.681 121.333C102.561 116.243 101.291 84.933 102.951 81.273C104.091 78.763 107.571 76.903 105.071 72.993C102.821 69.463 82.5612 73.483 84.4612 81.573C84.8612 83.273 87.8812 85.313 88.3812 87.263C89.3412 91.003 89.7012 99.703 85.0412 100.753C75.7912 102.833 76.4512 95.913 77.5412 88.773C78.1712 84.623 82.7012 81.623 79.9312 78.513C75.9912 74.083 65.6912 79.503 61.0712 80.523C53.0512 82.293 42.7712 81.013 36.2712 86.383C28.3212 92.953 22.9612 105.893 22.7112 116.243C22.6212 119.883 24.0112 123.023 24.3612 126.643C24.3738 126.679 24.3862 126.715 24.3984 126.75C24.6419 127.432 24.8754 127.832 24.8195 128.28C24.8185 128.291 24.8171 128.3 24.8155 128.309C24.7707 128.604 24.5307 128.917 23.8912 129.333C12.2112 112.983 5.93117 92.843 3.45117 72.953C3.74117 71.633 7.10116 70.833 8.41116 70.493C23.1112 66.613 41.5812 65.313 56.7412 62.733C107.541 54.113 158.491 44.633 209.431 37.443C213.991 36.803 223.301 34.983 227.241 35.173C228.321 35.223 232.201 36.833 232.691 37.583C233.571 38.923 235.211 45.843 235.561 47.803C240.041 72.653 226.821 106.323 211.961 125.993C210.921 127.373 210.821 129.593 208.921 130.423L206.631 131.123C155.331 137.613 104.291 147.903 52.9512 153.923C49.8412 154.283 43.9823 155.226 41.9912 154.613M208.231 99.423C206.231 99.503 201.661 99.783 200.871 97.433C200.471 96.243 200.491 80.333 200.891 79.003C201.961 75.443 209.051 77.583 207.481 69.873C206.951 67.253 202.441 67.883 201.131 65.013C199.531 61.513 204.671 54.883 197.441 56.083C189.851 57.343 191.971 65.363 189.901 69.523C188.991 71.343 185.061 72.123 184.341 75.923C183.271 81.573 186.131 79.583 188.021 81.863C189.371 83.483 188.831 97.223 188.801 100.583C188.781 104.243 186.311 115.873 192.171 116.643C197.041 117.293 205.741 109.283 207.521 105.093C208.391 103.043 208.361 101.573 208.221 99.423H208.231ZM167.841 117.753V93.073C167.841 89.633 173.751 95.043 174.841 94.823C177.701 94.263 179.491 87.313 179.731 84.763C180.421 77.633 174.631 68.383 169.911 77.953C169.081 79.633 170.131 81.423 167.871 81.883C163.881 82.713 164.791 78.433 162.601 77.333C158.781 75.413 150.921 84.693 150.681 88.613C150.801 90.773 153.351 91.203 154.391 92.513C158.541 97.773 153.701 115.433 155.231 122.493C158.321 125.213 167.161 120.723 167.841 117.743V117.753ZM133.231 125.073C133.961 125.703 133.921 127.223 135.451 127.703C141.871 129.713 150.371 119.633 147.841 113.823C147.111 112.153 145.071 111.493 144.691 109.503C143.301 102.283 144.831 90.813 143.961 83.303C143.171 76.473 137.881 84.363 137.421 84.473C134.061 85.333 131.001 82.773 127.861 82.913C119.211 83.273 113.051 102.393 112.491 109.483C112.071 114.723 111.721 129.883 118.281 131.413C126.311 133.283 128.901 121.323 133.241 125.063L133.231 125.073Z" fill="white"/>
<path fill-rule="evenodd" clip-rule="evenodd" d="M35.2912 141.123C38.6312 142.753 47.2312 143.663 50.6612 142.653C54.6012 141.483 59.4312 132.483 60.5812 128.643C61.4112 125.853 59.9612 122.283 63.5312 121.133C65.0512 121.253 64.8512 128.363 64.6812 129.743C64.2712 133.033 58.9312 135.903 62.3312 140.253C64.7812 143.383 85.2812 140.623 82.4512 131.363C82.0112 129.933 79.8112 129.113 79.1712 126.393C78.7712 124.703 77.9412 114.723 78.4712 113.623C80.0512 110.673 88.2112 110.433 89.1912 113.373C89.5812 114.533 89.5912 125.173 89.3012 126.693C88.8412 129.123 83.6212 132.033 87.8512 135.663C91.0712 138.423 103.981 134.753 106.531 131.753C111.131 126.313 104.531 125.153 103.681 121.333C102.561 116.243 101.291 84.933 102.951 81.273C104.091 78.763 107.571 76.903 105.071 72.993C102.821 69.463 82.5612 73.483 84.4612 81.573C84.8612 83.273 87.8812 85.313 88.3812 87.263C89.3412 91.003 89.7012 99.703 85.0412 100.753C75.7912 102.833 76.4512 95.913 77.5412 88.773C78.1712 84.623 82.7012 81.623 79.9312 78.513C75.9912 74.083 65.6912 79.503 61.0712 80.523C53.0512 82.293 42.7712 81.013 36.2712 86.383C28.3212 92.953 22.9612 105.893 22.7112 116.243C22.6212 119.883 24.0112 123.023 24.3612 126.643C24.3738 126.679 24.3862 126.715 24.3984 126.75C24.6419 127.432 24.8754 127.832 24.8195 128.28C24.8185 128.291 24.8171 128.3 24.8155 128.309C24.7707 128.604 24.5307 128.917 23.8912 129.333C12.2112 112.983 5.93117 92.843 3.45117 72.953C3.74117 71.633 7.10116 70.833 8.41116 70.493C23.1112 66.613 41.5812 65.313 56.7412 62.733C107.541 54.113 158.491 44.633 209.431 37.443C213.991 36.803 223.301 34.983 227.241 35.173C228.321 35.223 232.201 36.833 232.691 37.583C233.571 38.923 235.211 45.843 235.561 47.803C240.041 72.653 226.821 106.323 211.961 125.993C210.921 127.373 210.821 129.593 208.921 130.423L206.631 131.123C155.331 137.613 104.291 147.903 52.9512 153.923C49.8412 154.283 43.9823 155.226 41.9912 154.613C40.1106 154.034 35.1 149.542 29.9157 138.935C29.6109 138.311 29.3054 137.666 29 137C29 136.536 29.7988 136.7 34.189 140.228C34.5338 140.505 34.9007 140.803 35.2912 141.123ZM208.231 99.423C208.228 99.4231 208.225 99.4229 208.221 99.423C208.361 101.573 208.391 103.043 207.521 105.093C205.741 109.283 197.041 117.293 192.171 116.643C186.311 115.873 188.781 104.243 188.801 100.583C188.831 97.223 189.371 83.483 188.021 81.863C186.131 79.583 183.271 81.573 184.341 75.923C185.061 72.123 188.991 71.343 189.901 69.523C191.971 65.363 189.851 57.343 197.441 56.083C204.671 54.883 199.531 61.513 201.131 65.013C202.441 67.883 206.951 67.253 207.481 69.873C209.051 77.583 201.961 75.443 200.891 79.003C200.491 80.333 200.471 96.243 200.871 97.433C201.66 99.7791 206.216 99.5035 208.221 99.423H208.231ZM167.841 93.073V117.743C167.161 120.723 158.321 125.213 155.231 122.493C153.701 115.433 158.541 97.773 154.391 92.513C153.351 91.203 150.801 90.773 150.681 88.613C150.921 84.693 158.781 75.413 162.601 77.333C164.791 78.433 163.881 82.713 167.871 81.883C170.131 81.423 169.081 79.633 169.911 77.953C174.631 68.383 180.421 77.633 179.731 84.763C179.491 87.313 177.701 94.263 174.841 94.823C173.751 95.043 167.841 89.633 167.841 93.073ZM135.451 127.703C133.921 127.223 133.961 125.703 133.231 125.073L133.241 125.063C128.901 121.323 126.311 133.283 118.281 131.413C111.721 129.883 112.071 114.723 112.491 109.483C113.051 102.393 119.211 83.273 127.861 82.913C131.001 82.773 134.061 85.333 137.421 84.473C137.881 84.363 143.171 76.473 143.961 83.303C144.831 90.813 143.301 102.283 144.691 109.503C145.071 111.493 147.111 112.153 147.841 113.823C150.371 119.633 141.871 129.713 135.451 127.703Z" fill="white"/>
<path d="M29 137C29 136.536 29.7988 136.7 34.189 140.228C30.2459 136.869 28.0356 133.158 24.3612 126.643C24.3738 126.679 24.3862 126.715 24.3984 126.75C24.6419 127.432 24.8754 127.832 24.8195 128.28C24.8185 128.291 24.8171 128.3 24.8155 128.309C24.7707 128.604 24.5307 128.917 23.8912 129.333C27.3427 134.534 29.0228 137.311 29.9157 138.935C29.6109 138.311 29.3054 137.666 29 137Z" fill="white"/>
<path d="M228.372 29.1728L228.412 31.3628C167.292 40.9328 106.072 50.0128 45.0115 59.9728C34.9215 61.6228 24.8415 64.2428 14.6915 65.5528C10.9815 66.0328 6.31151 67.8028 3.32151 64.6428C3.19151 63.2128 4.2415 63.1528 5.2215 62.8228C10.6715 60.9728 21.6115 59.6028 27.8015 58.4828C85.3115 48.1228 145.632 38.2828 203.462 29.9828C211.432 28.8428 220.842 26.4428 228.372 29.1828V29.1728Z" fill="white"/>
<path d="M202.983 136.833C203.503 140.653 198.543 141.283 195.693 141.863C160.713 149.003 121.023 152.303 85.3026 157.103C74.7826 158.523 61.8126 161.803 51.5326 162.253C48.5326 162.383 46.3826 162.133 44.4626 159.623C44.1426 157.873 45.2426 158.653 46.3326 158.533C70.3626 156.003 96.3326 151.523 120.283 147.963C144.233 144.403 172.393 137.873 195.983 136.173C198.523 135.993 200.563 135.963 202.983 136.833Z" fill="white"/>
<path d="M29.502 125.603C34.512 128.603 38.0119 137.973 44.8719 135.373C47.0519 132.193 41.752 131.003 39.812 129.293C32.672 123.053 29.8719 109.393 38.1119 103.173C52.1619 92.5627 58.5819 114.823 56.9819 125.783C54.1019 145.523 33.4119 141.233 29.5119 125.603H29.502Z" fill="white"/>
<path d="M63.8824 118.863C62.8624 119.813 62.5824 118.713 62.2224 117.923C60.0724 113.173 60.4824 107.983 57.0424 102.913C51.9524 95.4027 46.8424 94.7027 38.6924 98.5227C36.9124 99.3527 35.9724 101.473 33.7424 101.463C28.3824 101.433 35.3324 92.1627 37.7824 90.8827C41.0424 89.1727 59.5224 88.8327 62.0824 91.1527C64.2524 93.1127 65.5424 117.333 63.8924 118.873L63.8824 118.863Z" fill="white"/>
<path d="M133.231 125.072C128.891 121.332 126.301 133.292 118.271 131.422C111.711 129.892 112.061 114.732 112.481 109.492C113.041 102.402 119.201 83.2823 127.851 82.9223C130.991 82.7923 134.041 85.3423 137.411 84.4823C137.881 84.3623 143.161 76.4823 143.951 83.3123C144.821 90.8223 143.291 102.292 144.681 109.512C145.061 111.492 147.101 112.152 147.831 113.832C150.371 119.642 141.861 129.722 135.441 127.712C133.921 127.232 133.951 125.712 133.221 125.082L133.231 125.072ZM133.441 93.4423C127.291 90.4623 125.671 102.232 125.311 106.622C125.131 108.842 125.171 118.452 129.731 115.542C130.481 115.062 133.441 105.912 133.441 105.032V93.4423Z" fill="#F97B21"/>
<path d="M133.441 93.4423C127.291 90.4623 125.671 102.232 125.311 106.622C125.131 108.842 125.171 118.452 129.731 115.542C130.481 115.062 133.441 105.912 133.441 105.032V93.4423Z" fill="white"/>
<path d="M208.232 99.4226C208.372 101.573 208.402 103.043 207.532 105.093C205.752 109.283 197.052 117.293 192.182 116.643C186.312 115.863 188.782 104.243 188.812 100.583C188.832 97.2226 189.372 83.4826 188.032 81.8626C186.132 79.5826 183.282 81.5826 184.352 75.9226C185.072 72.1226 189.002 71.3526 189.912 69.5226C191.982 65.3526 189.862 57.3426 197.452 56.0826C205.042 54.8226 199.542 61.5126 201.142 65.0126C202.452 67.8826 206.962 67.2626 207.492 69.8726C209.052 77.5826 201.972 75.4426 200.902 79.0026C200.502 80.3326 200.482 96.2426 200.882 97.4326C201.672 99.7826 206.242 99.5026 208.242 99.4226H208.232Z" fill="#F97B21"/>
<path d="M167.842 117.753C167.162 120.733 158.332 125.223 155.232 122.503C153.702 115.443 158.542 97.7728 154.392 92.5228C153.352 91.2028 150.802 90.7728 150.682 88.6228C150.932 84.7028 158.782 75.4228 162.602 77.3428C164.792 78.4428 163.872 82.7228 167.872 81.8928C170.132 81.4228 169.082 79.6328 169.912 77.9628C174.622 68.3928 180.422 77.6328 179.732 84.7728C179.482 87.3228 177.702 94.2728 174.842 94.8328C173.752 95.0428 167.842 89.6428 167.842 93.0828V117.763V117.753Z" fill="#F97B21"/>
<path d="M231.031 33.6123C217.441 35.6023 203.851 37.5523 190.281 39.6123C180.171 41.1523 170.081 42.7923 159.991 44.4723C146.771 46.6723 133.571 48.9823 120.351 51.1823C111.011 52.7323 101.661 54.2423 92.3112 55.6623C82.1012 57.2223 71.8512 58.5123 61.6612 60.2023C50.7912 62.0123 39.9912 64.2923 29.1212 66.0923C20.9312 67.4523 12.6812 68.3823 4.45117 69.5023" stroke="#29166F" stroke-width="2" stroke-linecap="round" stroke-linejoin="round"/>
<path d="M234.022 36.2324C236.082 41.1424 236.952 46.3124 237.852 51.5524C239.482 61.1224 237.602 70.4324 235.682 79.5724C234.072 87.2624 231.222 94.8424 227.892 101.982C223.472 111.472 218.152 120.542 213.002 129.672C212.052 131.352 210.092 132.462 208.592 133.832" stroke="#29166F" stroke-width="2" stroke-linecap="round" stroke-linejoin="round"/>
<path d="M201.872 134.953C195.512 135.703 189.142 136.323 182.812 137.223C173.202 138.603 163.612 140.183 154.022 141.683C142.802 143.433 131.602 145.243 120.372 146.893C111.162 148.243 101.912 149.303 92.7116 150.683C80.1116 152.573 67.5316 154.673 54.9416 156.613C52.2216 157.033 49.4516 157.053 46.7216 157.423C45.3216 157.613 43.9716 158.133 42.6016 158.513" stroke="#29166F" stroke-width="2" stroke-linecap="round" stroke-linejoin="round"/>
</svg>
