<?xml version="1.0" encoding="UTF-8"?>
<svg id="Layer_1" xmlns="http://www.w3.org/2000/svg" version="1.1" viewBox="0 0 240 240">
  <!-- Generator: Adobe Illustrator 29.0.1, SVG Export Plug-In . SVG Version: 2.1.0 Build 192)  -->
  <defs>
    <style>
      .st0, .st1, .st2 {
        fill-rule: evenodd;
      }

      .st0, .st3 {
        fill: #f97b21;
      }

      .st4, .st1 {
        fill: #fff;
      }

      .st2 {
        fill: #29166f;
      }

      .st5 {
        fill: none;
        stroke: #29166f;
        stroke-linecap: round;
        stroke-linejoin: round;
        stroke-width: 2px;
      }
    </style>
  </defs>
  <path class="st2" d="M234.7,83.3c6.4-22.3,6-46.9-9.8-65.1C211,.7,189.2-2.1,168.4.5c-20.3,2.2-31.5,9.7-43.5,25.5-1.5,1.7-2.7,3-3.9,3.2-1.5.3-3-1.1-4.8-2.8-1.6-1.6-3.1-3.3-4.5-4.9-3.7-4.1-7.9-8.1-12.9-10.5-11.5-5.7-31.3-8.9-45.4-7.8-17,1-32.3,13.5-41.4,26.7-44.7,71.1,48.7,158.8,95.3,205.7,3.4,3,4.4,5.2,8.8.9,44-44.3,101.1-91.3,118.7-153v-.2ZM209.3,29c5.2-.8,10.8-1.7,16-1,3.8.7,4.6,2.9-.4,3.9-71.2,11.3-143.1,21.3-214.2,34.2-2.2.4-6.4.3-7.1-1.1-.8-1.1,1.2-2.4,2.9-2.8,66.6-12.4,135.6-23.4,202.6-33.2h.2ZM227.7,35.4c6.2.7,7,7.2,8,12.1,4.7,25.9-8.9,59-24.5,80.2-2.2,3.2-6.2,3.9-9.9,4.3-51.8,6.7-103.2,17.3-155.2,22.9-4.2.3-6.6-1.1-9.2-4.3-4.2-5.1-7-11.2-10.5-16.7C14.6,117.3,6.7,97.9,3.8,77.6c-.8-4,1.2-6.6,5.2-7.4,4.2-1.1,8.6-1.9,13.2-2.7,63.6-8.7,126.7-22,190.3-30.7,4.8-.6,10.3-2.1,15.1-1.5h.2ZM197.7,136.1c7.1-.4,7.1,3.8.5,5.4-37,7.8-77.7,10.7-115.8,16.1-10.4,1.5-21.2,4.3-31.7,4.7-2.2.2-8.1-1.2-5.6-3.2.9-.5,2.4-.7,3.6-.9,14.7-1.6,30.1-3.9,45.2-6.2,11-1.7,22.3-3.4,33.2-5.1,23.3-3.7,47-9.2,70.4-10.8h.2Z"/>
  <path class="st0" d="M24.3,127c2.5,5.9,6.4,12.2,12.5,14.7,2.7,1,5.9,1.3,8.8,1.4,4.4.2,7.6-1.9,10-5.3,2.5-3.3,4.3-7.5,5.2-11.4,1.6-5.8,3.8-3,3.6,1,.2,4.3-3.9,8.1-2,12,3.1,4.6,16.6.8,18.8-3.5,2.2-3.6-1-7-1.9-10.6-.7-2.7-.9-6-.7-8.8.1-1.2.5-2.3,1.4-3.2,2.3-2.1,7.9-2.2,9.1,1.2,1,3.2.7,7.2.3,10.5-.5,3.7-4.2,8.2,0,10.7,4.3,2.4,19.5-1.4,18.2-7.9-.7-3.3-3.7-5.8-3.9-9.3-1-8.7-1.6-26.3-.9-34.1,0-3.6,4.1-7.5,2.1-11-2.8-3.5-10.3-1.1-14,.5-2.5,1.2-5.4,3-5.6,6,0,3.3,3.3,6.6,3.5,10.3.7,5.4-1.7,11.6-8.1,9.9-4.3-1.4-3.6-7.3-2.9-10.9.7-3.7,3.1-6.9,1.9-9.9-3.6-5.8-14.1.1-19.3.9-7.8,1.7-17.1.8-23.7,5.6-11.2,8.8-17.6,27-12.4,40.8v.2ZM63.8,118.9c1.9-.8.9-11.3.9-14.2-.5-3.9-.3-12.6-3.4-14.2-4.9-1.9-15.6-1.6-21.6-.5-3.7.8-7.7,6.1-7.5,9.3.9,3.1,4.9,0,6.8-.9,9.5-5.3,17-.2,20.5,9.5,1.1,2.9,1.5,6.3,2.7,9,.5,1.1,1.1,1.8,1.6,1.8h0ZM57.4,126.3c-2.2,14.8-18.3,17-26.1,4.5-.5-.8-1.4-2.6-1.2-3.2.5-.7,1.7.7,2.3,1.2,2.5,2.4,4.9,5.4,7.9,6.3,1.9.6,3.8,0,3.9-1.2.1-1.1-1.2-2.4-2.7-3.5-10.7-6.9-12.6-25.7,1.2-29.7,12.1-3,16.4,16.4,14.7,25.4v.2Z"/>
  <path class="st4" d="M35.3,141.1c13.2,3.7,19.1,2.6,24.6-10.9.9-2.2,1-5.8,2.9-7.3,1.2-.7,2.2,3,1.8,5-.4,4.7-6.2,12.1,1.9,13.2,4.9.4,13.1-1.7,15.1-6,1.8-3.6-1.5-6.9-2.2-10.4-1.3-6.8-2-14.6,7-12.8,3.8,1.2,3.1,5.3,3.2,9.3.1,3-.8,6.1-1.8,8.7-1.3,3.9,1.1,6.4,5.1,6.3,4.9-.3,14.9-2.2,14.5-8.5-.5-3.3-3.6-5.8-3.8-9.2-1-8.7-1.6-26.6-.9-34.3.1-1.2.4-2.2.8-3.2,1-2,2.6-5.4,1.2-7.5-3.2-4.5-17.8.2-19.2,5.3-1,3.1,1.7,5.8,2.7,9.1.6,2,.7,4.1.5,6.2-.2,4.1-3.9,7.4-8,6-4.3-1.4-3.6-7.3-2.8-11,.8-3.4,2.7-6.6,2.1-9-2.3-6.2-11.9-1.7-16.4-.6-7.6,2.5-17.3,1.3-24.6,5.2-12,7.1-18.6,26.3-15,39.8.3,1.9,0,3.1-.7,2.7-.7-.3-2-1.9-2.6-2.9-8.6-13.8-13.8-29.9-16.4-46-.3-1.6-.4-3.5.3-4.9,1.2-2.6,4.6-3.3,7.7-4,3.8-.9,7.8-1.6,11.9-2.2,11.7-1.8,23.5-3,35-5,55-9.3,110.2-19.7,165.4-27,8.7-.6,10.2,5.5,11.5,12.6,4.2,23.7-7.5,55.2-21.4,75.1-2.5,4.2-5.4,8.2-10.8,8.6-54,6.7-107.7,18.9-161.9,23.2M207.6,100.6c-1.8-1.6-6-1.4-6.5-4.5-.5-3.2-.3-6.7-.3-10.1,0-3,0-6.5,1.2-7.9,2.1-2.2,6.3-3.9,5.5-7.7-.6-2.6-3.4-3.5-4.9-5.5-1.9-2.1-.7-6.2-2-8-1-1.3-2.8-1.2-4.2-.7-6,1.7-4.7,9.4-7.6,13.3-2.3,2.7-6.4,6.4-3.7,10.1,1.3,1.5,2.9,2.8,3.1,5,.6,4.4.4,11.3.2,16.2,0,4.8-1.9,12.6,2.7,15.4,5.3,2.9,20.4-10.2,16.6-15.6h0ZM167.6,118.5c.4-.9.4-2,.4-3,0-4.5,0-15.4,0-19.8,0-1.2,0-2.9,1.5-2.9,1.5,0,4.2,1.4,6,.9,4-1.7,5.1-9.3,4.3-13-.8-4.4-3.6-8.3-7-5.9-1.8,1.2-2.5,3.8-4.2,5.2-.4.3-.8.5-1.2.6-2.1.2-3.5-2.2-5.2-3-3.2-1.4-7.4,2.8-9.9,6.5-3.8,5.4,1.8,7.1,2.9,11.8,1.4,5.9-.6,16.3-.5,23.2,0,1.8.5,3.9,2.5,4.3,3.2.7,8.5-1.6,10.4-4.7h0ZM133.3,126.3c1.4.9,3,2,5,1.8,5.5-.6,10.7-7.8,9.6-12.7-.4-1.7-1.4-3.2-2.1-4.7-3.8-5.4,1.2-29.2-3.8-29.9-1.6-.3-3.5,1.8-5.4,2.3-3.8.9-8-2.1-11.7,0-7.5,4.5-12.3,19.1-12.8,28.7,0,6.1-.6,20.6,8.3,20,4.1-.2,7.6-5.2,10.2-6.1.9-.3,1.7,0,2.5.4h.1Z"/>
  <path class="st1" d="M35.2,140.9c3.1,1.7,7.4,2.2,11,2.2,6.6.3,10.3-5.7,12.9-11.2,1.4-2.6,1.2-6.8,3.5-8.7,1.2-.7,2.2,3,1.8,5-.4,4.7-6.2,12.1,1.9,13.2,6.6.5,18.9-3.2,14.8-11.5-1.2-2.5-2.2-5.1-2.4-7.9-.3-4-.9-7.9,2.4-9.5,2.3-1,5.9-1,7.4,1.3,1.3,2.4,1,7.6.7,10.9-.3,3.5-3.5,7-1,10.2,3.5,3.6,15.4,0,18.1-3.6,1.9-2.4.5-5.5-1.1-7.8-1.3-1.9-1.8-3.9-2-6.1-.5-9.9-2.3-27.5,0-36.2,1-2,2.6-5.4,1.2-7.5-3.2-4.6-19.4.5-19.4,6.5,0,3.3,3.3,6.7,3.5,10.5.7,5.3-1.8,11.3-8.1,9.7-4.3-1.4-3.6-7.3-2.8-11,.8-3.4,2.7-6.6,2.1-9-2.3-6.2-11.9-1.7-16.4-.6-7.6,2.5-17.3,1.3-24.6,5.2-9.3,5.4-14.4,17.3-15.9,27.8-.3,2.6-.2,5.2.2,7.8.8,4,2.1,11-2.7,4-8.9-14.4-14.4-31.1-16.6-47.9-.4-4.8,4-6.2,8.3-7,3.8-.9,7.8-1.6,11.9-2.2,66.8-9.1,133-23.3,199.9-32,8.9-.8,10.7,4.7,12,12.4,4.5,25.7-8.8,58.5-24.3,79.6-1.9,2.6-4.6,3.9-7.8,4.3-52.4,6.8-104.6,17.5-157.1,23.1-2.8.1-4.6.3-6.6-1.2-2.8-2.2-5-5.5-7.4-9.3-.8-1.5-4.6-7.3-1.8-6,1.3.7,2.8,1.8,4.2,2.5h.2ZM207.8,100.7c3.6,5.5-11.3,18.5-16.6,15.6-4.6-2.8-2.7-10.7-2.7-15.4.2-4.9.4-11.8-.2-16.2-.2-2.2-1.8-3.4-3.1-5-2.4-3.2.8-6.9,3-9.3,3.5-3.4,2-9.8,6.2-13,1.7-1.3,4.8-2.3,6.3-.4,1.1,1.4.3,4.4,1.2,6.6,1.1,3.3,5.9,4.1,5.7,8,0,3.3-3.6,4.6-5.5,6.7-1.2,1.4-1.2,3.6-1.2,6.8,0,2.6,0,5.5,0,8,0,1.8,0,3.7,1.4,4.9,1.3,1.3,4.3,1.4,5.5,2.6h0ZM168.6,93c-.7.7-.5,2-.6,3,0,3.9,0,12.2,0,17.2,0,3.9.3,5.3-2,7.2-2,1.6-4.6,2.9-7.2,3.1-2.8.3-4.1-1.8-4.1-4.3-.1-7,2.1-17.9.4-23.8-1.4-4.3-6.3-6.1-2.9-11.1,2.4-3.8,7.1-8.1,9.9-6.7,1.8.7,3.2,3.2,5.3,3,.6-.1.8-.2,1.2-.6,1.6-1.3,2.3-3.7,3.9-5,3.3-2.7,6.3.9,7.2,5.3.9,4-.1,11.4-4.1,13.4-2.2.8-5.1-1.6-7-.7h0ZM135.7,127.7c-1.6-.6-2.9-2.2-4.7-2-2.3.2-4.6,3.9-8,5.4-2.4,1.2-5.6,1.1-7.4-1-3.6-4.4-3.7-13.6-3.4-19.7.9-9.2,5.5-23.1,12.7-27.3,3.7-2.2,7.9.8,11.7,0,1.9-.5,3.9-2.5,5.4-2.3,2,.4,2,2.9,2.2,4.7.4,6.5-.4,14.6.3,20.9,0,.6.2,1.1.3,1.7.6,2.5,2.3,4.5,3,7,1.7,5.5-5.6,15-12,12.7h-.2Z"/>
  <path class="st4" d="M29.5,137.9c0-1.5,4.6,2.5,4.5,2.3-3.1-3.2-6-7.2-8.4-11.5-.7-1.1-1.7-3.1-1.8-1.2,0,1.2.3,2.4,1,3.5,1.4,2.3,3.4,5.3,4.6,7.3.6.9.2.2.1-.3h0Z"/>
  <path class="st4" d="M228.6,29.6c.7,1.4-3.4,2.4-5,2.6-71.3,11.1-142.7,21.4-213.7,34.1-1.9.3-6.2,0-6.4-1.6-.2-1,1.3-1.9,3.4-2.5,67.4-12.5,137.1-23.6,204.9-33.5,4.4-.5,13.6-2.2,16.7.9h0Z"/>
  <path class="st4" d="M203,137.5c.8,2.6-4.4,3.9-6.6,4.4-44.1,9-91.7,11.1-136,19.4-4.7.4-12.5,2.5-15.8-.9-.1-.2-.2-.6,0-.7.7-1.2,2.7-1.2,4.1-1.5,28.4-3.3,57.7-8.1,85.7-12.6,20.6-3.5,41.7-8,62.4-9.5,2-.2,5.5,0,6.2,1.3h0Z"/>
  <path class="st4" d="M30.1,127.3c.7-.2,1.7,1,2.3,1.4,2.6,2.5,5.2,5.8,8.4,6.5,2.2.6,4.6-.8,2.6-3.1-2.1-2.2-5.5-4-7.1-6.9-4.3-6.5-5.4-15.8.8-21.4,13.4-11.9,22.4,8.5,20.4,21.7-1.7,13.4-14.3,18-23.8,8.3-1.6-1.7-4-5.3-3.5-6.5h0Z"/>
  <path class="st4" d="M63.6,118.9c-.5,0-1.1-.9-1.6-2.1-1.3-3.1-1.7-6.7-3-9.8-3.8-9.3-11.1-13.5-20.1-8.5-2,.9-5.9,3.9-6.8.9-.1-3.6,4.3-9.2,8.6-9.6,5.8-.8,16.3-1.2,20.7.7,3,1.6,2.8,10.5,3.3,14.4,0,2.7,1.1,13.6-1,13.9h0Z"/>
  <path class="st3" d="M133,126.2c-3.9-2-5.9,3.5-10.2,5-.8.3-1.6.6-2.4.6-8.8.6-8.2-13.9-8.3-20,.5-9.6,5.3-24.2,12.8-28.7,3.7-2.2,7.9.8,11.7,0,2.4-.6,4.7-3.7,6.6-1.6.8,1.1.9,2.5,1.1,4,.4,6.4-.4,14.4.2,20.7.2,3.4,2.5,6,3.4,9.2,1.1,5-4.3,12.3-9.8,12.8-2,.1-3.6-1.1-5-1.9h-.1ZM132.7,93.2c-6.8-2.7-9,17.6-6.1,21.6,3.7,4.9,6.1-6.9,6.7-9.7.2-2.9.1-6.6,0-9.7,0-.8-.1-1.7-.7-2.2h0Z"/>
  <path class="st4" d="M132.7,93.2c-6.8-2.7-9,17.6-6.1,21.6,3.7,4.9,6.1-6.9,6.7-9.7.2-2.9.1-6.6,0-9.7,0-.8-.1-1.7-.7-2.2h0Z"/>
  <path class="st3" d="M207.8,100.8c3.5,5.8-11.8,18.4-16.6,15.5-4.7-2.9-2.7-10.6-2.7-15.4.2-4.9.4-11.8-.2-16.2-.2-2.2-1.8-3.4-3.1-5-2.8-3.8,1.7-7.6,3.9-10.4,2.3-3.1,1.6-8,4.5-11.1,1.7-1.8,5.5-3.4,7.4-1.1,1.1,1.6,0,5,1.3,7.2,1.4,2.8,5.6,3.7,5.4,7.3,0,3.3-3.6,4.6-5.5,6.7-1.2,1.4-1.2,3.6-1.2,6.8,0,2.6,0,5.5,0,8,0,1.8,0,3.7,1.4,4.9,1.3,1.3,4.4,1.4,5.5,2.6h0Z"/>
  <path class="st3" d="M167.4,118.7c-1.9,3.1-7.4,5.4-10.5,4.6-1.8-.5-2.3-2.5-2.3-4.3,0-6.8,1.9-17.2.5-23.2-.8-3.9-6.1-6.3-3.6-10.7,2.2-4,7-9.1,10.5-7.6,1.8.8,3.5,3.7,5.7,2.8,2.6-1.3,3-5.2,5.9-6.2,3-1.1,5.3,2.5,6.1,6.4.7,4.1-.2,10.2-3.7,12.8-1.9,1-4.9-.8-6.6-.7-1.5,0-1.5,1.7-1.5,2.9,0,4.5,0,15.6,0,20,0,1,0,2.1-.5,3h0Z"/>
  <path class="st5" d="M231,33.6c-52.8,7.1-105,17.3-157.7,24.8-23,3.4-45.7,8.6-68.9,11.1"/>
  <path class="st5" d="M234,36.2c4.6,12.3,5.6,25.7,2.7,38.5-3,18.3-12.1,34.7-21.2,50.6-1.7,3.3-3.9,6.2-6.9,8.5"/>
  <path class="st5" d="M201.9,135c-27.1,2.8-53.8,8-80.7,11.8-26.2,3.6-52.5,7.4-78.6,11.7"/>
</svg>